<svg xmlns="http://www.w3.org/2000/svg" version="1.1" xmlns:xlink="http://www.w3.org/1999/xlink"
    xmlns:svgjs="http://svgjs.dev/svgjs" width="1000" height="151" viewBox="0 0 1000 151">
    <g transform="matrix(1,0,0,1,-0.6060493415432688,-0.16278569545455923)"><svg viewBox="0 0 396 60"
            data-background-color="#ffffff" preserveAspectRatio="xMidYMid meet" height="151" width="1000"
            xmlns="http://www.w3.org/2000/svg" xmlns:xlink="http://www.w3.org/1999/xlink">
            <g id="tight-bounds" transform="matrix(1,0,0,1,0.23999553925114014,0.06468324521654267)"><svg
                    viewBox="0 0 395.52 59.870629658937204" height="59.870629658937204" width="395.52">
                    <g><svg viewBox="0 0 527.2221846081751 79.80664482871126" height="59.870629658937204"
                            width="395.52">
                            <g>
                                <rect width="5.207703032641566" height="69.29665252854812" x="112.86175112359227"
                                    y="5.254996150081567" fill="#ffffff" opacity="1" stroke-width="0"
                                    stroke="transparent" fill-opacity="1" class="rect-o-0"
                                    data-fill-palette-color="primary" rx="1%" id="o-0" data-palette-color="#ff851b">
                                </rect>
                            </g>
                            <g transform="matrix(1,0,0,1,131.70218460817512,11.029717194127244)"><svg
                                    viewBox="0 0 395.52 57.74721044045677" height="57.74721044045677" width="395.52">
                                    <g id="textblocktransform"><svg viewBox="0 0 395.52 57.74721044045677"
                                            height="57.74721044045677" width="395.52" id="textblock">
                                            <g><svg viewBox="0 0 395.52 57.74721044045677" height="57.74721044045677"
                                                    width="395.52">
                                                    <g transform="matrix(1,0,0,1,0,0)"><svg width="395.52"
                                                            viewBox="1.0499999523162842 -35.29999923706055 245.17999267578125 35.79999923706055"
                                                            height="57.74721044045677" data-palette-color="#ff851b">
                                                            <path
                                                                d="M1.05-33.9L1.05-35 19.05-35 19.05-33.9 13.75-33.9 13.75-1.1 15.55-1.1Q19.8-1.1 22.33-3.7 24.85-6.3 27.45-11.7L27.45-11.7 28.5-11.7 27.55 0 1.05 0 1.05-1.1 4-1.1 4-33.9 1.05-33.9ZM30.85-33.9L30.85-35 56.85-35 57.35-25.1 56.45-25.1Q54.35-30.15 52.05-32.02 49.75-33.9 45.3-33.9L45.3-33.9 43.55-33.9 43.55-18.45 45.25-18.45Q47.6-18.45 49.2-20.23 50.8-22 51.45-25L51.45-25 52.2-25 52.2-10.2 51.35-10.2Q50.45-13.95 48.92-15.55 47.4-17.15 44.75-17.15L44.75-17.15 43.55-17.15 43.55-1.1 45.45-1.1Q50.05-1.1 53.27-3.85 56.5-6.6 57.7-10.9L57.7-10.9 58.7-10.9 58.3 0 30.85 0 30.85-1.1 33.8-1.1 33.8-33.9 30.85-33.9ZM78.55-0.95L82.09-0.95 78.45-11.75 68.55-11.75 64.7-0.95 68.45-0.95 68.45 0 60.8 0 60.8-0.95 63.15-0.95 75.9-35.3 80-35.3 92.59-0.95 94.9-0.95 94.9 0 78.55 0 78.55-0.95ZM78.05-12.85L73.7-25.95 69-12.85 78.05-12.85ZM101.09-34.05L109.49-9.05 118.19-34.05 114.29-34.05 114.29-35 121.94-35 121.94-34.05 119.59-34.05 107.54 0.5 103.34 0.5 90.59-34.05 88.29-34.05 88.29-35 104.64-35 104.64-34.05 101.09-34.05ZM123.29-33.9L123.29-35 149.29-35 149.79-25.1 148.89-25.1Q146.79-30.15 144.49-32.02 142.19-33.9 137.74-33.9L137.74-33.9 135.99-33.9 135.99-18.45 137.69-18.45Q140.04-18.45 141.64-20.23 143.24-22 143.89-25L143.89-25 144.64-25 144.64-10.2 143.79-10.2Q142.89-13.95 141.37-15.55 139.84-17.15 137.19-17.15L137.19-17.15 135.99-17.15 135.99-1.1 137.89-1.1Q142.49-1.1 145.72-3.85 148.94-6.6 150.14-10.9L150.14-10.9 151.14-10.9 150.74 0 123.29 0 123.29-1.1 126.24-1.1 126.24-33.9 123.29-33.9ZM155.39-35L180.14-35 180.14-33.9 165.34-1.15 167.04-1.15Q171.54-1.15 174.96-4.03 178.39-6.9 179.89-12.2L179.89-12.2 180.79-12.2 180.19 0 154.59 0 154.59-0.95 169.54-33.9 167.49-33.9Q163.04-33.9 160.74-31.95 158.44-30 155.54-23.95L155.54-23.95 154.64-23.95 155.39-35ZM183.84-33.9L183.84-35 209.84-35 210.34-25.1 209.44-25.1Q207.34-30.15 205.03-32.02 202.74-33.9 198.28-33.9L198.28-33.9 196.53-33.9 196.53-18.45 198.23-18.45Q200.59-18.45 202.19-20.23 203.78-22 204.44-25L204.44-25 205.19-25 205.19-10.2 204.34-10.2Q203.44-13.95 201.91-15.55 200.38-17.15 197.73-17.15L197.73-17.15 196.53-17.15 196.53-1.1 198.44-1.1Q203.03-1.1 206.26-3.85 209.49-6.6 210.69-10.9L210.69-10.9 211.69-10.9 211.28 0 183.84 0 183.84-1.1 186.78-1.1 186.78-33.9 183.84-33.9ZM246.23-34.05L243.48-34.05 243.48 0 236.48 0 219.33-32.35 219.33-0.95 222.08-0.95 222.08 0 215.23 0 215.23-0.95 217.98-0.95 217.98-34.05 215.23-34.05 215.23-35 229.03-35 242.13-9.9 242.13-34.05 239.38-34.05 239.38-35 246.23-35 246.23-34.05Z"
                                                                opacity="1" transform="matrix(1,0,0,1,0,0)"
                                                                fill="#ffffff" class="wordmark-text-0"
                                                                data-fill-palette-color="primary" id="text-0"></path>
                                                        </svg></g>
                                                </svg></g>
                                        </svg></g>
                                </svg></g>
                            <g><svg viewBox="0 0 99.229020671651 79.80664482871126" height="79.80664482871126"
                                    width="99.229020671651">
                                    <g><svg xmlns="http://www.w3.org/2000/svg"
                                            xmlns:xlink="http://www.w3.org/1999/xlink" version="1.1" x="0" y="0"
                                            viewBox="0 9.78600025177002 100.0003433227539 80.42699432373047"
                                            enable-background="new 0 0 100 100" xml:space="preserve"
                                            width="99.229020671651" height="79.80664482871126" class="icon-icon-0"
                                            data-fill-palette-color="accent" id="icon-0">
                                            <path
                                                d="M49.942 52.994c13.552-0.488 27.103-0.977 40.653-1.465-2.527-4.177-3.159-7.831-7.989-8.461-7.229-0.94-14.458-1.883-21.688-2.826-14.023-1.827-28.05-3.654-42.075-5.48C20.101 36.792 39.724 53.361 49.942 52.994z"
                                                fill="#ffffff" data-fill-palette-color="accent"></path>
                                            <path
                                                d="M0 9.786c4.391 7.257 26.615 23.072 32.953 23.886 17.33 2.231 34.657 4.46 51.986 6.688-3.393-5.607-4.18-9.35-10.312-10.959-8.904-2.341-17.812-4.683-26.717-7.023C31.94 18.182 15.97 13.984 0 9.786z"
                                                fill="#ffffff" data-fill-palette-color="accent"></path>
                                            <path
                                                d="M63.108 66.207c10.413-2.219 20.826-4.439 31.241-6.66-2.028-3.346-2.034-5.359-5.827-5.189-6.158 0.273-12.314 0.549-18.471 0.822-11.343 0.506-22.686 1.014-34.028 1.518C37.298 58.064 54.94 67.947 63.108 66.207z"
                                                fill="#ffffff" data-fill-palette-color="accent"></path>
                                            <path
                                                d="M87.682 90.213c5.725-3.719 7.262-7.721 10.519-13.807 3.651-6.824 1.257-7.844-2.821-14.596-0.417-0.688-5.842 0.232-6.453 0.904-0.745 0.818-0.248 5.455-0.294 6.496C88.315 76.211 87.998 83.213 87.682 90.213z"
                                                fill="#ffffff" data-fill-palette-color="accent"></path>
                                            <path
                                                d="M86.35 63.447c-3.795 0.809-8.604 0.191-9.572 4.229-1.373 5.736-2.746 11.475-4.12 17.211C81.904 82.678 86.028 71.582 86.35 63.447z"
                                                fill="#ffffff" data-fill-palette-color="accent"></path>
                                            <path
                                                d="M74.666 66.121c-9.148 1.953-8.956 4.611-12.879 13.18C68.007 78.711 73.811 71.941 74.666 66.121z"
                                                fill="#ffffff" data-fill-palette-color="accent"></path>
                                        </svg></g>
                                </svg></g>
                        </svg></g>
                    <defs></defs>
                </svg>
                <rect width="395.52" height="59.870629658937204" fill="none" stroke="none" visibility="hidden"></rect>
            </g>
        </svg></g>
</svg>